#N canvas 516 184 1007 480 10;
#X obj 539 489 cnv 15 169 156 empty empty empty 20 12 0 14 -135105
-66577 0;
#X obj 149 13 cnv 15 1091 460 empty empty empty 20 12 0 14 -260480
-66577 0;
#X obj 263 49 import mrpeach;
#X obj 616 115 loadbang;
#X msg 616 147 port 7400;
#X obj 614 180 udpreceive;
#X obj 611 207 unpackOSC;
#N canvas -1928 -8 1904 1049 audioFeedBack 1;
#X obj 960 -37 inlet;
#X obj 826 1020 dac~;
#X obj -63 913 *~, f 5;
#X obj 34 899 vline~;
#X obj 1244 915 *~, f 5;
#X obj 1306 906 vline~;
#X obj 1043 907 *~, f 5;
#X obj 1105 898 vline~;
#X obj 254 897 *~, f 5;
#X obj 316 888 vline~;
#X obj 803 897 *~, f 5;
#X obj 865 888 vline~;
#X obj 1059 941 *~ 0.3, f 8;
#X obj 266 926 *~ 0.3, f 8;
#X obj -67 863 osc~ 800;
#X obj 1239 865 osc~ 800;
#X obj 228 858 osc~ 450;
#X obj 1006 874 osc~ 450;
#X obj 790 838 osc~ 450;
#N canvas 695 40 942 1003 calcularMargen 0;
#X obj 572 101 inlet;
#X obj 679 287 value bandera;
#X floatatom 639 286 5 0 0 0 - - -, f 5;
#X obj 560 284 t b b b;
#X obj 583 335 value bandera;
#X obj 696 333 value lastCheck;
#X obj 607 380 ==;
#X floatatom 592 426 5 0 0 0 - - -, f 5;
#X obj 558 469 spigot;
#X obj 364 493 bng 40 250 50 0 empty empty empty 17 7 0 10 -262144
-1 -1;
#X obj 572 579 spigot;
#X obj 659 578 spigot 1;
#X obj 704 556 == 0;
#X obj 554 505 t b b b;
#X obj 624 530 value lastCheck;
#X obj 561 651 value lastCheck;
#X obj 683 651 value lastCheck;
#X msg 683 611 1;
#X msg 560 620 0;
#X obj 195 677 spigot, f 7;
#X obj 216 413 hsl 128 15 1000 5000 0 0 empty empty empty -2 -8 0 10
-262144 -1 -1 0 1;
#X obj 235 647 value bandera;
#X obj 190 607 t b b;
#X floatatom 123 465 11 0 0 0 - - -, f 11;
#X obj 204 560 delay;
#X obj 244 714 bng 40 250 50 0 empty empty empty 17 7 0 10 -262144
-1 -1;
#X obj 270 815 value margen;
#X obj 370 739 spigot, f 7;
#X obj 386 669 value bandera;
#X obj 367 637 t b b;
#X obj 386 696 == 0;
#X obj 396 818 value margen;
#X obj 680 222 value margen;
#X text 251 385 delay para detectar que estamos cerca;
#X obj 570 160 value FixDistance;
#X obj 571 191 t b f b;
#X obj 371 796 t b f;
#X obj 243 791 t b f;
#X obj 244 840 value margen;
#X obj 245 863 s \$0-StreamDegree;
#X obj 369 868 s \$0-StreamDistance;
#X obj 381 145 loadbang;
#X obj 375 195 value margen;
#X msg 1155 563 15;
#X obj 1155 535 spigot, f 7;
#X obj 1152 433 t b b;
#X obj 1171 492 == 0;
#X obj 1171 465 value test;
#X obj 1310 557 value test;
#X msg 1285 505 1;
#X msg 1328 502 0;
#X obj 1314 468 bng 15 250 50 0 empty empty empty 17 7 0 10 -262144
-1 -1;
#X floatatom 1212 615 5 0 0 0 - - -, f 5;
#X msg 370 767 5;
#X obj 654 253 < 5;
#X msg 245 761 11;
#X msg 364 171 5;
#X connect 0 0 34 0;
#X connect 3 0 8 0;
#X connect 3 1 4 0;
#X connect 3 2 5 0;
#X connect 4 0 6 0;
#X connect 5 0 6 1;
#X connect 6 0 7 0;
#X connect 7 0 8 1;
#X connect 8 0 13 0;
#X connect 9 0 24 0;
#X connect 9 0 29 0;
#X connect 10 0 18 0;
#X connect 11 0 17 0;
#X connect 12 0 11 1;
#X connect 13 0 9 0;
#X connect 13 1 10 0;
#X connect 13 1 11 0;
#X connect 13 2 14 0;
#X connect 14 0 12 0;
#X connect 14 0 10 1;
#X connect 17 0 16 0;
#X connect 18 0 15 0;
#X connect 19 0 25 0;
#X connect 20 0 23 0;
#X connect 20 0 24 1;
#X connect 21 0 19 1;
#X connect 22 0 19 0;
#X connect 22 1 21 0;
#X connect 24 0 22 0;
#X connect 25 0 55 0;
#X connect 27 0 53 0;
#X connect 28 0 30 0;
#X connect 29 0 27 0;
#X connect 29 1 28 0;
#X connect 30 0 27 1;
#X connect 32 0 54 1;
#X connect 34 0 35 0;
#X connect 35 0 3 0;
#X connect 35 1 54 0;
#X connect 35 2 32 0;
#X connect 36 0 40 0;
#X connect 36 1 31 0;
#X connect 37 0 38 0;
#X connect 37 1 26 0;
#X connect 38 0 39 0;
#X connect 41 0 56 0;
#X connect 43 0 52 0;
#X connect 44 0 43 0;
#X connect 45 0 44 0;
#X connect 45 1 47 0;
#X connect 46 0 44 1;
#X connect 47 0 46 0;
#X connect 49 0 48 0;
#X connect 50 0 48 0;
#X connect 51 0 45 0;
#X connect 53 0 36 0;
#X connect 54 0 2 0;
#X connect 54 0 1 0;
#X connect 55 0 37 0;
#X connect 56 0 42 0;
#X restore 1346 127 pd calcularMargen, f 18;
#X obj 189 163 value margen;
#X obj 155 260 spigot;
#X obj 265 380 spigot;
#X obj 118 377 spigot;
#X obj 1030 216 value FixPosition;
#X obj 1041 278 < 0;
#X obj 1000 279 > 0;
#X obj 1041 322 s \$0-RightInDistance;
#X obj 283 357 r \$0-RightInDistance;
#X obj 128 356 r \$0-LeftInDistance;
#X obj 1000 351 s \$0-LeftInDistance;
#X obj 1288 301 < 0, f 4;
#X obj 1239 300 > 0;
#X obj 1230 236 value FixDegree;
#X obj 1186 364 s \$0-LeftInDegree;
#X obj 1249 340 s \$0-RightInDegree;
#X obj 262 434 s \$0-RIGHTDISTANCE;
#X obj 111 432 s \$0-LEFTDISTANCE;
#X obj 1305 807 r \$0-RIGHTDISTANCE;
#X obj 34 784 r \$0-LEFTDISTANCE;
#X obj 90 826 r \$0-LeftOutDistance;
#X obj 1351 829 r \$0-RightOutDistance;
#X floatatom 249 246 5 0 0 0 - - -, f 5;
#X floatatom 276 203 5 0 0 0 - - -, f 5;
#X obj 29 237 r \$0-MetroDistanceSignal;
#X msg 1105 850 \$1 50;
#X msg 316 840 \$1 50;
#X msg 35 859 \$1 50;
#X msg 1306 859 \$1 50;
#X obj 1018 249 t f f;
#X obj 1225 267 t f f;
#X obj 865 363 value margen;
#X obj 836 435 spigot;
#X obj 916 514 spigot;
#X obj 798 527 spigot;
#X obj 721 389 r \$0-MetroDegreeSignal;
#X obj 934 491 r \$0-RightInDegree;
#X obj 812 489 r \$0-LeftInDegree;
#X obj 909 578 s \$0-LEFTDEGREE;
#X obj 800 577 s \$0-RIGHTDEGREE;
#X obj 320 784 r \$0-LEFTDEGREE;
#X obj 1105 806 r \$0-RIGHTDEGREE;
#X obj 369 810 r \$0-RightOutDegree;
#X obj 1170 829 r \$0-LeftOutDegree;
#X obj 845 256 value FixDegree;
#X obj 695 205 hsl 128 15 0 90 0 0 empty empty empty -2 -8 0 10 -262144
-1 -1 0 1;
#X obj 916 329 t b f;
#X obj 477 334 value margen;
#X obj 449 214 value FixDegree;
#X obj 528 300 t b f;
#X obj 286 560 spigot;
#X obj 443 541 spigot 1;
#X obj 488 519 == 0;
#X floatatom 707 240 5 0 0 0 - - -, f 5;
#X obj 421 622 s \$0-BOTHOUTDEGREE;
#X obj 927 426 &&;
#X obj 539 397 &&;
#X obj 746 694 r \$0-BOTHOUTDEGREE;
#N canvas 690 338 450 369 calculateMetroDistance 1;
#X obj 150 104 metro;
#X obj 104 74 tgl 18 0 empty empty empty 17 7 0 10 -262144 -1 -1 1
1;
#X floatatom 236 115 5 0 0 0 - - -, f 5;
#X obj 150 133 tgl 32 0 empty empty empty 17 7 0 10 -262144 -1 -1 0
1;
#X obj 226 79 maxlib/scale 5 100 50 800;
#X text 24 75 trigger this;
#X obj 149 183 s \$0-MetroDistanceSignal;
#X obj 226 46 value FixDistance;
#X obj 227 6 inlet;
#X obj 104 40 loadbang;
#X connect 0 0 3 0;
#X connect 1 0 0 0;
#X connect 3 0 6 0;
#X connect 4 0 2 0;
#X connect 4 0 0 1;
#X connect 7 0 4 0;
#X connect 8 0 7 0;
#X connect 9 0 1 0;
#X restore 1388 79 pd calculateMetroDistance;
#N canvas 263 352 450 426 calculateMetroDegree 0;
#X obj 192 65 abs, f 6;
#X obj 195 96 maxlib/scale 5 100 100 800;
#X obj 169 14 value FixDegree;
#X obj 141 100 tgl 18 0 empty empty empty 17 7 0 10 -262144 -1 -1 1
1;
#X text 61 101 trigger this;
#X obj 157 131 metro;
#X obj 145 154 tgl 32 0 empty empty empty 17 7 0 10 -262144 -1 -1 0
1;
#X obj 145 197 s \$0-MetroDegreeSignal;
#X floatatom 189 38 5 0 0 0 - - -, f 5;
#X obj 169 -42 inlet;
#X obj 122 72 loadbang;
#X connect 0 0 1 0;
#X connect 1 0 5 1;
#X connect 2 0 8 0;
#X connect 3 0 5 0;
#X connect 5 0 6 0;
#X connect 6 0 7 0;
#X connect 8 0 0 0;
#X connect 9 0 2 0;
#X connect 10 0 3 0;
#X restore 1368 103 pd calculateMetroDegree;
#N canvas 314 297 669 554 silenceDegree 0;
#X obj 477 247 < 0;
#X obj 385 250 > 0;
#X obj 447 322 spigot;
#X obj 391 322 spigot;
#X obj 394 171 value FixDegree;
#X obj 438 475 s \$0-LeftOutDegree;
#X obj 292 474 s \$0-RightOutDegree;
#X obj 414 213 t f f;
#X obj 461 284 t b f;
#X obj 394 288 t b f;
#X obj 314 88 inlet;
#X obj 311 125 t b b;
#X obj 247 168 value margen;
#X obj 243 199 t b f;
#X obj 132 226 value FixDistance;
#X obj 216 406 spigot;
#X obj 228 341 == 1;
#X obj 205 372 t b f;
#X obj 228 269 >;
#X connect 0 0 8 0;
#X connect 1 0 9 0;
#X connect 2 0 5 0;
#X connect 3 0 6 0;
#X connect 4 0 7 0;
#X connect 7 0 1 0;
#X connect 7 1 0 0;
#X connect 8 0 2 0;
#X connect 8 1 2 1;
#X connect 9 0 3 0;
#X connect 9 1 3 1;
#X connect 10 0 11 0;
#X connect 11 0 12 0;
#X connect 11 1 4 0;
#X connect 12 0 13 0;
#X connect 13 0 14 0;
#X connect 13 1 18 1;
#X connect 14 0 18 0;
#X connect 15 0 6 0;
#X connect 15 0 5 0;
#X connect 16 0 17 0;
#X connect 17 0 15 0;
#X connect 17 1 15 1;
#X connect 18 0 16 0;
#X restore 1313 183 pd silenceDegree;
#X obj 929 62 t b b b b b b b b b b;
#N canvas 0 0 1904 1019 silenceDistance 0;
#X obj 747 324 value FixPosition;
#X obj 782 685 s \$0-LeftOutDistance;
#X obj 667 727 s \$0-RightOutDistance;
#X obj 787 412 < 0;
#X obj 716 410 > 0;
#X obj 781 474 spigot;
#X obj 707 477 spigot;
#X obj 787 447 t b f;
#X obj 758 357 t f f;
#X obj 716 443 t b f;
#X obj 725 252 inlet;
#X obj 628 478 <;
#X obj 644 325 value margen;
#X obj 706 279 t b b;
#X obj 532 435 value FixDistance;
#X obj 616 615 spigot;
#X obj 599 510 == 1;
#X obj 605 581 t b f;
#X obj 526 411 spigot;
#X obj 531 375 t b f;
#X obj 640 356 t f f;
#X obj 607 395 == 11;
#X connect 0 0 8 0;
#X connect 3 0 7 0;
#X connect 4 0 9 0;
#X connect 5 0 1 0;
#X connect 6 0 2 0;
#X connect 7 0 5 0;
#X connect 7 1 5 1;
#X connect 8 0 4 0;
#X connect 8 1 3 0;
#X connect 9 0 6 0;
#X connect 9 1 6 1;
#X connect 10 0 13 0;
#X connect 11 0 16 0;
#X connect 12 0 20 0;
#X connect 13 0 12 0;
#X connect 13 1 0 0;
#X connect 14 0 11 0;
#X connect 15 0 2 0;
#X connect 15 0 1 0;
#X connect 16 0 17 0;
#X connect 17 0 15 0;
#X connect 17 1 15 1;
#X connect 18 0 14 0;
#X connect 19 0 18 0;
#X connect 19 1 18 1;
#X connect 20 0 21 0;
#X connect 20 1 11 1;
#X connect 21 0 19 0;
#X restore 1328 156 pd silenceDistance;
#X obj 866 281 abs;
#X obj 503 246 abs;
#X obj 530 275 <= 15;
#X obj 918 304 >= 15;
#X text 692 58 inlet que representa el clock;
#X obj 1260 949 *~ 0.3, f 8;
#X obj -7 949 *~ 0.3, f 8;
#X obj 821 925 *~ 0.15;
#X msg 359 839 0 100;
#X msg 89 858 0 100;
#X msg 856 825 0 100;
#X msg 1171 857 0 100;
#X msg 1352 857 0 100;
#X floatatom 595 437 5 0 0 0 - - -, f 5;
#X obj 473 572 bng 15 250 50 0 empty empty empty 17 7 0 10 -262144
-1 -1;
#X obj 913 710 r BOTHINDEGREE;
#X obj 161 646 s BOTHINDEGREE;
#X msg 924 837 1 50;
#X obj 730 570 tgl 33 0 empty empty empty 17 7 0 10 -262144 -1 -1 0
1;
#X obj 1058 574 tgl 33 0 empty empty empty 17 7 0 10 -262144 -1 -1
0 1;
#N canvas 0 0 1904 996 calcularIdeal 0;
#X obj 676 606 spigot, f 7;
#X obj 729 498 delay;
#X obj 783 411 bng 40 250 50 0 empty empty empty 17 7 0 10 -262144
-1 -1;
#X obj 1096 96 r BOTHINDEGREE;
#X obj 648 374 hsl 128 15 1000 5000 0 0 empty empty empty -2 -8 0 10
-262144 -1 -1 0 1;
#X floatatom 555 426 11 0 0 0 - - -, f 11;
#X obj 793 513 r BOTHINDEGREE;
#X msg 764 554 1;
#X msg 816 556 0;
#X obj 878 542 r \$0-BOTHOUTDEGREE;
#X obj 729 677 s \$0-BOTHOUTDEGREE;
#X obj 715 545 t b;
#X obj 873 758 spigot, f 7;
#X obj 870 656 t b b;
#X obj 889 715 == 0;
#X obj 874 815 t b f;
#X msg 609 662 0;
#X obj 663 632 t b b;
#X obj 888 683 value permitir;
#X obj 899 837 value permitir;
#X msg 873 787 1;
#X obj 875 879 s BOTHINDEGREE;
#X obj 610 710 value permitir;
#X floatatom 637 774 5 0 0 0 - - -, f 5;
#X obj 1121 225 t b b b;
#X obj 1168 321 ==;
#X floatatom 1153 367 5 0 0 0 - - -, f 5;
#X obj 1119 410 spigot;
#X obj 1133 520 spigot;
#X obj 1220 519 spigot 1;
#X obj 1265 497 == 0;
#X obj 1115 446 t b b b;
#X msg 1244 552 1;
#X msg 1121 561 0;
#X obj 1144 275 value permitir;
#X obj 979 123 bng 15 250 50 0 empty empty empty 17 7 0 10 -262144
-1 -1;
#X obj 509 637 bng 15 250 50 0 empty empty empty 17 7 0 10 -262144
-1 -1;
#X obj 1257 274 value ultimoCheck;
#X obj 1185 471 value ultimoCheck;
#X obj 1244 592 value ultimoCheck;
#X obj 1122 592 value ultimoCheck;
#X obj 1491 449 bng 15 250 50 0 empty empty empty 17 7 0 10 -262144
-1 -1;
#X floatatom 1538 575 5 0 0 0 - - -, f 5;
#X obj 1511 511 value ultimoCheck;
#X obj 624 534 bng 40 250 50 0 empty empty empty 17 7 0 10 -262144
-1 -1;
#X obj 1360 761 value permitir;
#X msg 1351 715 1;
#X msg 1391 719 0;
#X obj 1472 760 value permitir;
#X obj 1327 138 value permitir;
#X obj 1263 70 r BOTHOUTDEGREE;
#X msg 1320 106 1;
#X obj 1241 111 t b b;
#X obj 1197 40 bng 15 250 50 0 empty empty empty 17 7 0 10 -262144
-1 -1;
#X obj 275 538 metro 100;
#X obj 266 598 value permitir;
#X floatatom 293 662 5 0 0 0 - - -, f 5;
#X obj 180 596 bng 15 250 50 0 empty empty empty 17 7 0 10 -262144
-1 -1;
#X connect 0 0 17 0;
#X connect 1 0 11 0;
#X connect 1 0 44 0;
#X connect 2 0 1 0;
#X connect 2 0 13 0;
#X connect 4 0 5 0;
#X connect 4 0 1 1;
#X connect 7 0 0 1;
#X connect 8 0 0 1;
#X connect 11 0 0 0;
#X connect 12 0 20 0;
#X connect 13 0 12 0;
#X connect 13 1 18 0;
#X connect 14 0 12 1;
#X connect 15 0 21 0;
#X connect 15 1 19 0;
#X connect 16 0 22 0;
#X connect 17 0 16 0;
#X connect 17 1 10 0;
#X connect 18 0 14 0;
#X connect 20 0 15 0;
#X connect 22 0 23 0;
#X connect 24 0 27 0;
#X connect 24 1 34 0;
#X connect 24 2 37 0;
#X connect 25 0 26 0;
#X connect 26 0 27 1;
#X connect 27 0 31 0;
#X connect 28 0 33 0;
#X connect 29 0 32 0;
#X connect 30 0 29 1;
#X connect 31 0 2 0;
#X connect 31 1 28 0;
#X connect 31 1 29 0;
#X connect 31 2 38 0;
#X connect 32 0 39 0;
#X connect 33 0 40 0;
#X connect 34 0 25 0;
#X connect 35 0 24 0;
#X connect 36 0 22 0;
#X connect 36 0 54 0;
#X connect 37 0 25 1;
#X connect 38 0 30 0;
#X connect 38 0 28 1;
#X connect 41 0 43 0;
#X connect 43 0 42 0;
#X connect 46 0 45 0;
#X connect 47 0 45 0;
#X connect 51 0 49 0;
#X connect 52 0 24 0;
#X connect 52 1 51 0;
#X connect 53 0 52 0;
#X connect 54 0 55 0;
#X connect 54 0 57 0;
#X connect 55 0 56 0;
#X restore 1198 446 pd calcularIdeal;
#X msg 895 761 1;
#X obj 932 803 spigot;
#X msg 1011 778 0;
#X obj 1091 661 hsl 128 15 0 5000 0 0 empty empty empty -2 -8 0 10
-262144 -1 -1 0 1;
#X floatatom 982 682 5 0 0 0 - - -, f 5;
#X obj 475 428 t b b b b f f;
#X obj 221 586 t b b b;
#X obj 287 634 s \$0-RightOutDegree;
#X obj 264 659 s \$0-LeftOutDegree;
#X msg 862 721 clear;
#X obj 1010 743 pipe 1000;
#X obj 189 199 == 5;
#X obj 503 356 == 11;
#X obj 891 385 == 11;
#X connect 0 0 81 0;
#X connect 2 0 89 0;
#X connect 3 0 2 1;
#X connect 4 0 88 0;
#X connect 5 0 4 1;
#X connect 6 0 12 0;
#X connect 7 0 6 1;
#X connect 8 0 13 0;
#X connect 9 0 8 1;
#X connect 10 0 90 0;
#X connect 11 0 10 1;
#X connect 12 0 1 1;
#X connect 13 0 1 0;
#X connect 14 0 2 0;
#X connect 15 0 4 0;
#X connect 16 0 8 0;
#X connect 17 0 6 0;
#X connect 18 0 10 0;
#X connect 20 0 43 0;
#X connect 20 0 115 0;
#X connect 21 0 23 0;
#X connect 21 0 22 0;
#X connect 22 0 36 0;
#X connect 23 0 37 0;
#X connect 24 0 49 0;
#X connect 25 0 27 0;
#X connect 26 0 30 0;
#X connect 28 0 22 1;
#X connect 29 0 23 1;
#X connect 31 0 35 0;
#X connect 32 0 34 0;
#X connect 33 0 50 0;
#X connect 38 0 48 0;
#X connect 39 0 47 0;
#X connect 40 0 92 0;
#X connect 41 0 95 0;
#X connect 44 0 21 0;
#X connect 45 0 7 0;
#X connect 46 0 9 0;
#X connect 47 0 3 0;
#X connect 48 0 5 0;
#X connect 49 0 26 0;
#X connect 49 1 25 0;
#X connect 50 0 32 0;
#X connect 50 1 31 0;
#X connect 51 0 117 0;
#X connect 52 0 54 0;
#X connect 52 0 53 0;
#X connect 53 0 102 0;
#X connect 53 0 58 0;
#X connect 54 0 101 0;
#X connect 54 0 59 0;
#X connect 55 0 52 0;
#X connect 56 0 53 1;
#X connect 57 0 54 1;
#X connect 60 0 46 0;
#X connect 61 0 45 0;
#X connect 62 0 91 0;
#X connect 63 0 94 0;
#X connect 64 0 83 0;
#X connect 65 0 73 0;
#X connect 65 0 85 1;
#X connect 65 0 86 1;
#X connect 66 0 51 0;
#X connect 66 1 75 1;
#X connect 67 0 116 0;
#X connect 68 0 84 0;
#X connect 69 0 67 0;
#X connect 69 1 76 1;
#X connect 70 0 110 0;
#X connect 71 0 74 0;
#X connect 71 0 97 0;
#X connect 72 0 71 1;
#X connect 75 0 52 1;
#X connect 76 0 96 0;
#X connect 76 0 109 0;
#X connect 77 0 93 0;
#X connect 77 0 104 0;
#X connect 77 0 113 0;
#X connect 81 0 20 0;
#X connect 81 1 68 0;
#X connect 81 2 64 0;
#X connect 81 3 24 0;
#X connect 81 4 33 0;
#X connect 81 5 80 0;
#X connect 81 6 82 0;
#X connect 81 7 19 0;
#X connect 81 8 79 0;
#X connect 81 9 78 0;
#X connect 83 0 86 0;
#X connect 84 0 85 0;
#X connect 85 0 69 0;
#X connect 86 0 66 0;
#X connect 88 0 1 1;
#X connect 89 0 1 0;
#X connect 90 0 1 0;
#X connect 90 0 1 1;
#X connect 91 0 9 0;
#X connect 92 0 3 0;
#X connect 93 0 11 0;
#X connect 94 0 7 0;
#X connect 95 0 5 0;
#X connect 98 0 105 0;
#X connect 98 0 114 0;
#X connect 100 0 11 0;
#X connect 104 0 105 1;
#X connect 105 0 100 0;
#X connect 106 0 105 1;
#X connect 107 0 108 0;
#X connect 107 0 114 1;
#X connect 109 0 70 0;
#X connect 109 1 71 0;
#X connect 109 4 70 1;
#X connect 109 5 72 0;
#X connect 110 0 99 0;
#X connect 110 1 112 0;
#X connect 110 2 111 0;
#X connect 113 0 114 0;
#X connect 114 0 106 0;
#X connect 114 0 93 0;
#X connect 115 0 21 1;
#X connect 115 0 42 0;
#X connect 116 0 76 0;
#X connect 117 0 75 0;
#X restore 591 613 pd audioFeedBack;
#X msg 566 503 bang;
#X msg 636 504 stop, f 5;
#N canvas 880 490 447 302 clock 0;
#X obj 154 101 inlet;
#X obj 180 184 bng 42 250 50 0 empty empty empty 17 7 0 10 -262144
-1 -1;
#X obj 176 138 metro 100;
#X obj 211 101 inlet;
#X obj 104 263 outlet;
#X connect 0 0 2 0;
#X connect 1 0 4 0;
#X connect 2 0 1 0;
#X connect 3 0 2 0;
#X restore 581 533 pd clock;
#X obj 597 561 t b b;
#X obj 468 287 routeOSC /SoundNav/Distance;
#X obj 678 285 routeOSC /SoundNav/Position;
#X obj 860 280 routeOSC /SoundNav/Degrees;
#X floatatom 415 351 12 0 0 0 - - -, f 12;
#X floatatom 624 356 14 0 0 0 - - -, f 14;
#X floatatom 868 357 18 0 0 0 - - -, f 18;
#X obj 714 360 value FixPosition;
#X obj 501 352 value FixDistance;
#X obj 985 358 value FixDegree;
#X connect 3 0 4 0;
#X connect 4 0 5 0;
#X connect 5 0 6 0;
#X connect 6 0 12 0;
#X connect 6 0 13 0;
#X connect 6 0 14 0;
#X connect 8 0 10 0;
#X connect 9 0 10 0;
#X connect 10 0 11 0;
#X connect 11 0 7 0;
#X connect 12 0 15 0;
#X connect 12 0 19 0;
#X connect 13 0 16 0;
#X connect 13 0 18 0;
#X connect 14 0 17 0;
#X connect 14 0 20 0;
